<svg width="1024" height="1024" viewBox="0 0 1024 1024" fill="none" xmlns="http://www.w3.org/2000/svg">
<g clip-path="url(#clip0_2_2)">
<path d="M828 0H196C87.7522 0 0 87.7522 0 196V828C0 936.248 87.7522 1024 196 1024H828C936.248 1024 1024 936.248 1024 828V196C1024 87.7522 936.248 0 828 0Z" fill="#F0EBE1"/>
<g clip-path="url(#clip1_2_2)">
<line x1="337.374" y1="278.487" x2="180.374" y2="571.487" stroke="black" stroke-width="19"/>
<line x1="343.495" y1="440.323" x2="338.495" y2="587.323" stroke="black" stroke-width="19"/>
<line x1="694.692" y1="443.833" x2="638.692" y2="570.833" stroke="black" stroke-width="19"/>
<line x1="695.408" y1="272.683" x2="737.408" y2="572.723" stroke="black" stroke-width="19"/>
<path d="M689.62 499.051L753.831 468.052V437.054L605.48 366.199L753.831 289.81V259.92L691.834 231.135L516.177 318.594L337.566 231.135L279.997 262.134V288.703L419.489 365.092L279.997 435.947V468.052L339.78 499.051L516.914 408.269L689.62 499.051Z" fill="#6366F1"/>
<path d="M697.67 486.406V473.055L746.004 448.008V463.006L697.67 486.406ZM283.886 447.657L330.591 474.469V485.143L283.886 461.514V447.657ZM523.12 391.273L683.786 470.657V486.619L523.12 404.311V391.273ZM344.475 472.98L509.235 391.29V404.307L344.475 487.666V472.98ZM461.137 339.497L294.407 259L337.591 237.053L516.176 329.633L691.773 237.092L736.481 259.992L573.889 341.817C567.389 345.088 567.399 354.373 573.906 357.629L734.821 438.166L693.112 459.779L516.176 369.12L336.112 461.629L294.986 438.02L461.229 355.384C467.815 352.111 467.761 342.695 461.137 339.497ZM285.962 286.273V271.622L441.463 349.203L425.743 355.484L285.962 286.273ZM604.822 356.347C604.609 356.217 589.929 349.291 589.929 349.291L746.004 270.743V285.458L604.822 356.347ZM620.444 364.04L757.624 295.16C759.013 294.463 759.89 293.04 759.89 291.486V258.895C759.89 257.351 759.026 255.939 757.653 255.236L693.668 222.463C692.496 221.863 691.107 221.861 689.933 222.456L518.021 309.692C516.862 310.281 515.491 310.287 514.326 309.704L339.385 222.431C338.221 221.851 336.849 221.857 335.688 222.446L272.25 254.684C270.869 255.386 270 256.802 270 258.35V291.467C270 293.032 270.888 294.461 272.291 295.154L410.048 363.215L272.928 431.298C271.556 431.981 270.675 433.37 270.648 434.906L270.048 467.472C270.019 469.049 270.896 470.502 272.302 471.215L338.175 504.543C339.339 505.13 340.711 505.132 341.877 504.547L514.322 417.957C515.487 417.37 516.864 417.374 518.029 417.966L688.325 504.554C689.469 505.134 690.821 505.149 691.978 504.589L757.57 472.833C758.988 472.146 759.89 470.709 759.89 469.134V435.108C759.89 433.539 758.998 432.109 757.591 431.417L620.444 364.04Z" fill="black"/>
<path d="M153.085 557.773H210.644L266.068 662.449H268.442L323.865 557.773H381.425L292.771 714.906V800.83H241.739V714.906L153.085 557.773Z" fill="black"/>
<path d="M409.493 557.773H472.869L539.804 721.077H542.653L609.588 557.773H672.963V800.83H623.118V642.629H621.1L558.2 799.643H524.257L461.357 642.036H459.339V800.83H409.493V557.773Z" fill="black"/>
<path d="M715.303 800.83V557.773H766.691V758.461H870.893V800.83H715.303Z" fill="black"/>
</g>
</g>
<defs>
<clipPath id="clip0_2_2">
<rect width="1024" height="1024" fill="white"/>
</clipPath>
<clipPath id="clip1_2_2">
<rect width="718" height="579" fill="white" transform="translate(153 222)"/>
</clipPath>
</defs>
</svg>
