<svg width="718" height="579" viewBox="0 0 718 579" fill="none" xmlns="http://www.w3.org/2000/svg">
<g clip-path="url(#clip0_1_11)">
<line x1="184.374" y1="56.4869" x2="27.3736" y2="349.487" stroke="black" stroke-width="19"/>
<line x1="190.495" y1="218.323" x2="185.495" y2="365.323" stroke="black" stroke-width="19"/>
<line x1="541.692" y1="221.833" x2="485.692" y2="348.833" stroke="black" stroke-width="19"/>
<line x1="542.408" y1="50.683" x2="584.408" y2="350.723" stroke="black" stroke-width="19"/>
<path d="M536.62 277.051L600.831 246.052V215.054L452.48 144.199L600.831 67.8104V37.92L538.834 9.13464L363.177 96.5937L184.566 9.13464L126.997 40.1341V66.7033L266.489 143.092L126.997 213.947V246.052L186.78 277.051L363.914 186.269L536.62 277.051Z" fill="#6366F1"/>
<path d="M544.67 264.406V251.055L593.004 226.008V241.006L544.67 264.406ZM130.886 225.657L177.591 252.469V263.143L130.886 239.514V225.657ZM370.12 169.273L530.786 248.657V264.619L370.12 182.311V169.273ZM191.475 250.98L356.235 169.29V182.307L191.475 265.666V250.98ZM308.137 117.497L141.407 36.9995L184.591 15.0528L363.176 107.633L538.773 15.0925L583.481 37.9917L420.889 119.817C414.389 123.088 414.399 132.373 420.906 135.629L581.821 216.166L540.112 237.779L363.176 147.12L183.112 239.629L141.986 216.02L308.229 133.384C314.815 130.111 314.761 120.695 308.137 117.497ZM132.962 64.2726V49.622L288.463 127.203L272.743 133.484L132.962 64.2726ZM451.822 134.347C451.609 134.217 436.929 127.291 436.929 127.291L593.004 48.7426V63.458L451.822 134.347ZM467.444 142.04L604.624 73.1603C606.013 72.4627 606.89 71.0402 606.89 69.4862V36.8951C606.89 35.3515 606.026 33.9395 604.653 33.2355L540.668 0.462698C539.496 -0.13678 538.107 -0.138868 536.933 0.456432L365.021 87.6919C363.862 88.281 362.491 88.2872 361.326 87.7045L186.385 0.431367C185.221 -0.149312 183.849 -0.143046 182.688 0.445988L119.25 32.6841C117.869 33.3859 117 34.8021 117 36.3499V69.4674C117 71.0319 117.888 72.4606 119.291 73.1541L257.048 141.215L119.928 209.298C118.556 209.981 117.675 211.37 117.648 212.906L117.048 245.472C117.019 247.049 117.896 248.502 119.302 249.215L185.175 282.543C186.339 283.13 187.711 283.132 188.877 282.547L361.322 195.957C362.487 195.37 363.864 195.374 365.029 195.966L535.325 282.554C536.469 283.134 537.821 283.149 538.978 282.589L604.57 250.833C605.988 250.146 606.89 248.709 606.89 247.134V213.108C606.89 211.539 605.998 210.109 604.591 209.417L467.444 142.04Z" fill="black"/>
<path d="M0.0845337 335.773H57.6445L113.068 440.449H115.442L170.865 335.773H228.425L139.771 492.906V578.83H88.7387V492.906L0.0845337 335.773Z" fill="black"/>
<path d="M256.493 335.773H319.869L386.804 499.077H389.653L456.588 335.773H519.963V578.83H470.118V420.629H468.1L405.2 577.643H371.257L308.357 420.036H306.339V578.83H256.493V335.773Z" fill="black"/>
<path d="M562.303 578.83V335.773H613.691V536.461H717.893V578.83H562.303Z" fill="black"/>
</g>
<defs>
<clipPath id="clip0_1_11">
<rect width="718" height="579" fill="white"/>
</clipPath>
</defs>
</svg>
