<svg width="800" height="800" viewBox="-6 -107 800 800" fill="none" xmlns="http://www.w3.org/2000/svg">
<line x1="220.374" y1="56.4869" x2="63.3736" y2="349.487" stroke="black" stroke-width="19"/>
<line x1="226.495" y1="218.323" x2="221.495" y2="365.323" stroke="black" stroke-width="19"/>
<line x1="577.692" y1="221.833" x2="521.692" y2="348.833" stroke="black" stroke-width="19"/>
<line x1="578.408" y1="50.683" x2="620.408" y2="350.723" stroke="black" stroke-width="19"/>
<path d="M572.62 277.051L636.831 246.052V215.054L488.48 144.199L636.831 67.8104V37.9201L574.834 9.13467L399.177 96.5937L220.566 9.13467L162.997 40.1341V66.7033L302.489 143.092L162.997 213.947V246.052L222.78 277.051L399.914 186.269L572.62 277.051Z" fill="#6366F1"/>
<path d="M580.67 264.406V251.055L629.004 226.008V241.006L580.67 264.406ZM166.886 225.657L213.591 252.469V263.143L166.886 239.514V225.657ZM406.12 169.273L566.786 248.657V264.619L406.12 182.311V169.273ZM227.475 250.98L392.235 169.29V182.307L227.475 265.666V250.98ZM344.137 117.497L177.407 36.9995L220.591 15.0528L399.176 107.633L574.773 15.0925L619.481 37.9917L456.889 119.817C450.389 123.088 450.399 132.373 456.906 135.629L617.821 216.166L576.112 237.779L399.176 147.12L219.112 239.629L177.986 216.02L344.229 133.384C350.815 130.111 350.761 120.695 344.137 117.497ZM168.962 64.2726V49.622L324.463 127.203L308.743 133.484L168.962 64.2726ZM487.822 134.347C487.609 134.217 472.929 127.291 472.929 127.291L629.004 48.7426V63.458L487.822 134.347ZM503.444 142.04L640.624 73.1604C642.013 72.4627 642.89 71.0403 642.89 69.4862V36.8951C642.89 35.3515 642.026 33.9395 640.653 33.2356L576.668 0.462713C575.496 -0.136764 574.107 -0.138853 572.933 0.456447L401.021 87.692C399.862 88.281 398.491 88.2873 397.326 87.7045L222.385 0.431382C221.221 -0.149297 219.849 -0.143031 218.688 0.446003L155.25 32.6841C153.869 33.3859 153 34.8021 153 36.3499V69.4674C153 71.0319 153.888 72.4606 155.291 73.1541L293.048 141.215L155.928 209.298C154.556 209.981 153.675 211.37 153.648 212.906L153.048 245.472C153.019 247.049 153.896 248.502 155.302 249.215L221.175 282.543C222.339 283.13 223.711 283.132 224.877 282.547L397.322 195.957C398.487 195.37 399.864 195.374 401.029 195.966L571.325 282.554C572.469 283.134 573.821 283.149 574.978 282.589L640.57 250.833C641.988 250.146 642.89 248.709 642.89 247.134V213.108C642.89 211.539 641.998 210.109 640.591 209.417L503.444 142.04Z" fill="black"/>
<path d="M36.0845 335.773H93.6444L149.068 440.449H151.442L206.865 335.773H264.425L175.771 492.906V578.83H124.739V492.906L36.0845 335.773ZM292.493 335.773H355.869L422.804 499.077H425.653L492.588 335.773H555.963V578.83H506.118V420.629H504.1L441.2 577.643H407.257L344.357 420.036H342.339V578.83H292.493V335.773ZM598.303 578.83V335.773H649.691V536.461H753.892V578.83H598.303Z" fill="black"/>
</svg>
