<?xml version="1.0" encoding="UTF-8"?>
<svg width="800px" height="800px" viewBox="-63.5 0 383 383" version="1.1" xmlns="http://www.w3.org/2000/svg" xmlns:xlink="http://www.w3.org/1999/xlink" preserveAspectRatio="xMidYMid">
	<g>
		<path d="M253.4216,214.246117 L2.1916,214.246117 L2.1916,200.078117 C2.1916,190.558117 9.9086,182.841117 19.4276,182.841117 L236.1846,182.841117 C245.7046,182.841117 253.4216,190.558117 253.4216,200.078117 L253.4216,214.246117 Z" fill="#DFDEDF"></path>
		<path d="M235.9192,378.552817 L19.6932,378.552817 C10.0272,378.552817 2.1912,370.716817 2.1912,361.050817 L2.1912,214.245817 L253.4212,214.245817 L253.4212,361.050817 C253.4212,370.716817 245.5862,378.552817 235.9192,378.552817" fill="#FFFFFF"></path>
		<path d="M250.302,211.397517 L250.302,198.691517 C250.302,191.190517 244.222,185.109517 236.721,185.109517 L19.279,185.109517 C11.778,185.109517 5.698,191.190517 5.698,198.691517 L5.698,211.397517 L250.302,211.397517 Z M250.302,362.866517 L250.302,217.095517 L5.698,217.095517 L5.698,362.866517 C5.698,370.367517 11.778,376.447517 19.279,376.447517 L236.721,376.447517 C244.222,376.447517 250.302,370.367517 250.302,362.866517 Z M20.554,179.412517 L21.4,170.176517 L17.808,179.486517 C18.295,179.449517 18.782,179.412517 19.279,179.412517 L20.554,179.412517 Z M233.955,163.842517 L235.209,179.412517 L236.721,179.412517 C237.53,179.412517 238.322,179.478517 239.105,179.575517 L233.955,163.842517 Z M251.202,186.006517 C254.179,189.400517 256,193.832517 256,198.691517 L256,362.866517 C256,373.497517 247.351,382.145517 236.721,382.145517 L19.279,382.145517 C8.649,382.145517 -8.52651283e-14,373.497517 -8.52651283e-14,362.866517 L-8.52651283e-14,198.691517 C-8.52651283e-14,193.539517 2.043,188.864517 5.347,185.401517 L24.567,135.584517 L32.948,44.0305167 L42.404,44.8955167 L34.852,127.387517 L37.512,128.413517 L33.902,137.771517 L30.09,179.412517 L225.683,179.412517 L214.829,44.6675167 L224.293,43.9045167 L230.695,123.373517 L230.699,123.372517 L251.202,186.006517 Z M21.1565,194.396517 C23.5325,194.396517 25.4585,196.322517 25.4585,198.698517 C25.4585,201.074517 23.5325,203.000517 21.1565,203.000517 C18.7805,203.000517 16.8545,201.074517 16.8545,198.698517 C16.8545,196.322517 18.7805,194.396517 21.1565,194.396517 Z M35.8645,194.396517 C38.2405,194.396517 40.1665,196.322517 40.1665,198.698517 C40.1665,201.074517 38.2405,203.000517 35.8645,203.000517 C33.4885,203.000517 31.5625,201.074517 31.5625,198.698517 C31.5625,196.322517 33.4885,194.396517 35.8645,194.396517 Z M50.1091,194.396517 C52.4851,194.396517 54.4111,196.322517 54.4111,198.698517 C54.4111,201.074517 52.4851,203.000517 50.1091,203.000517 C47.7331,203.000517 45.8071,201.074517 45.8071,198.698517 C45.8071,196.322517 47.7331,194.396517 50.1091,194.396517 Z" fill="#000000"></path>
		<text x="127.5" y="312" text-anchor="middle" font-family="Arial Black, Impact, sans-serif" font-weight="900" font-size="72" letter-spacing="8" fill="#000000">YML</text>
		<polygon fill="#6366f1" points="211.0954 132.638217 241.8364 117.797217 241.8364 102.957217 170.8134 69.0352167 241.8364 32.4642167 241.8364 18.1542167 212.1554 4.37321674 128.0594 46.2442167 42.5494 4.37321674 14.9884 19.2142167 14.9884 31.9342167 81.7704 68.5052167 14.9884 102.427217 14.9884 117.797217 43.6094 132.638217 128.4124 89.1762167"></polygon>
		<path d="M214.9494,126.584517 L214.9494,120.192517 L238.0894,108.201517 L238.0894,115.381517 L214.9494,126.584517 Z M16.8504,108.033517 L39.2104,120.869517 L39.2104,125.979517 L16.8504,114.667517 L16.8504,108.033517 Z M131.3834,81.0395167 L208.3024,119.044517 L208.3024,126.686517 L131.3834,87.2815167 L131.3834,81.0395167 Z M45.8574,120.156517 L124.7364,81.0475167 L124.7364,87.2795167 L45.8574,127.187517 L45.8574,120.156517 Z M101.7094,56.2515167 L21.8874,17.7135167 L42.5614,7.20651674 L128.0594,51.5295167 L212.1264,7.22551674 L233.5304,18.1885167 L155.6894,57.3625167 C152.5774,58.9285167 152.5824,63.3735167 155.6974,64.9325167 L232.7354,103.489517 L212.7674,113.836517 L128.0594,70.4335167 L41.8534,114.722517 L22.1644,103.419517 L101.7534,63.8575167 C104.9064,62.2905167 104.8804,57.7825167 101.7094,56.2515167 L101.7094,56.2515167 Z M17.8444,30.7705167 L17.8444,23.7565167 L92.2904,60.8985167 L84.7644,63.9055167 L17.8444,30.7705167 Z M170.4984,64.3185167 C170.3964,64.2565167 163.3684,60.9405167 163.3684,60.9405167 L238.0894,23.3355167 L238.0894,30.3805167 L170.4984,64.3185167 Z M177.9774,68.0015167 L243.6524,35.0255167 C244.3174,34.6915167 244.7374,34.0105167 244.7374,33.2665167 L244.7374,17.6635167 C244.7374,16.9245167 244.3234,16.2485167 243.6664,15.9115167 L213.0334,0.221516741 C212.4724,-0.0654832591 211.8074,-0.0664832591 211.2454,0.218516741 L128.9424,41.9825167 C128.3874,42.2645167 127.7314,42.2675167 127.1734,41.9885167 L43.4204,0.206516741 C42.8634,-0.0714832591 42.2064,-0.0684832591 41.6504,0.213516741 L11.2794,15.6475167 C10.6184,15.9835167 10.2024,16.6615167 10.2024,17.4025167 L10.2024,33.2575167 C10.2024,34.0065167 10.6274,34.6905167 11.2994,35.0225167 L77.2504,67.6065167 L11.6044,100.201517 C10.9474,100.528517 10.5254,101.193517 10.5124,101.928517 L10.2254,117.519517 C10.2114,118.274517 10.6314,118.970517 11.3044,119.311517 L42.8414,135.267517 C43.3984,135.548517 44.0554,135.549517 44.6134,135.269517 L127.1714,93.8145167 C127.7294,93.5335167 128.3884,93.5355167 128.9464,93.8185167 L210.4754,135.272517 C211.0234,135.550517 211.6704,135.557517 212.2244,135.289517 L243.6264,120.086517 C244.3054,119.757517 244.7374,119.069517 244.7374,118.315517 L244.7374,102.025517 C244.7374,101.274517 244.3104,100.589517 243.6364,100.258517 L177.9774,68.0015167 Z" fill="#000000"></path>
	</g>
</svg>
